# xmcd CD database file
#
# Track frame offsets:
#	150
#	9481
#	34125
#	56110
#	76360
#	100365
#	116426
#	140911
#	155185
#	178293
#	193319
#	215628
#	231144
#	251968
#	259749
#
# Disc length: 3663 seconds
#
# Revision: 0
# Processed by: cddbd v1.5PL3 Copyright (c) Steve Scherf et al.
# Submitted via: CDex 1.50
#
DISCID=e90e4d0f
DTITLE=B.B. King - Blues On The Bayou
DYEAR=1998
DGENRE=Blues
TTITLE0=Blues boys tune
TTITLE1=Bad case of love
TTITLE2=I'll survive
TTITLE3=Mean ole' world
TTITLE4=Blues man
TTITLE5=Broken promise
TTITLE6=Darlin' what happened
TTITLE7=Shake it up and go
TTITLE8=Blues we like
TTITLE9=Good man gone bad
TTITLE10=If I lost you
TTITLE11=Tell me baby
TTITLE12=I got some outside help I don t need
TTITLE13=Blues in "G"
TTITLE14=If that ain't it I quit
EXTD=YEAR: 1998
EXTT0=
EXTT1=
EXTT2=
EXTT3=
EXTT4=
EXTT5=
EXTT6=
EXTT7=
EXTT8=
EXTT9=
EXTT10=
EXTT11=
EXTT12=
EXTT13=
EXTT14=
PLAYORDER=
